<svg width="50" height="25" xmlns="http://www.w3.org/2000/svg" xml:space="preserve" version="1.1">

 <g>
  <title>Layer 1</title>
  <g stroke="null" id="svg_1">
   <path stroke="null" fill="#A5D9AB" clip-rule="evenodd" fill-rule="evenodd" d="m27.70073,18.15755c4.08618,3.577 10.73454,3.577 14.82405,0c4.08618,-3.577 4.08618,-9.39896 0,-12.97596l-0.14641,-0.12631c-0.80193,-0.70334 -1.85342,-1.05358 -2.90491,-1.05358c-1.05149,0 -2.10299,0.35024 -2.90824,1.05358l-1.46743,1.28324c0.07653,0.06603 0.60561,0.50813 1.1979,1.02487l1.86673,1.63635c1.68372,1.47271 1.68372,3.86982 0,5.34253c-1.68372,1.47271 -4.41893,1.47271 -6.10265,0l-10.6081,-9.287c-0.80193,-0.70334 -1.85342,-1.05358 -2.90491,-1.05358c-1.05149,0 -2.10299,0.35024 -2.90824,1.05358l-1.46743,1.28324c0.07986,0.06316 13.52965,11.81903 13.52965,11.81903z" class="st1" id="Fill-1_13_"/>
   <path stroke="null" id="svg_2" fill="#0ABD59" clip-rule="evenodd" fill-rule="evenodd" d="m36.60182,5.02657c0.73538,-0.63444 1.7536,-1.02774 2.87497,-1.02774l-8.90108,0c-1.18127,0 -1.91332,0.41913 -2.23941,0.65741c-0.22294,0.16363 -0.43923,0.33875 -0.64886,0.52248l-10.46169,9.16068c-1.68372,1.47271 -4.42226,1.47271 -6.10265,0c-1.68372,-1.47271 -1.68372,-3.86982 0,-5.34253l4.55536,-3.9703c0.73538,-0.63444 1.7536,-1.02774 2.87497,-1.02774l-8.1291,0c-1.12137,0 -2.46568,0.21531 -3.66026,1.17989c-4.08618,3.577 -4.08618,9.39896 0,12.97596c4.08618,3.577 10.73454,3.577 14.82405,0l10.46169,-9.16068l4.55203,-3.96743z" class="st0"/>
  </g>
 </g>
</svg>